<svg width="38" height="45" viewBox="0 0 38 45" fill="none" xmlns="http://www.w3.org/2000/svg">
<path d="M31.3186 43.1879C28.9 45.5567 26.2315 45.1874 23.6879 44.0705C20.9837 42.9312 18.5115 42.8591 15.6556 44.0705C12.0991 45.6197 10.2115 45.1694 8.06958 43.1879C-4.02346 30.6233 -2.23851 11.4837 11.5056 10.7632C14.839 10.9433 17.1728 12.6231 19.1363 12.7627C22.0547 12.1638 24.8481 10.448 27.9718 10.6731C31.7246 10.9794 34.5315 12.4745 36.4057 15.163C28.6858 19.8466 30.5153 30.1144 37.6061 32.9966C36.187 36.757 34.3664 40.4723 31.3141 43.2194L31.3186 43.1879ZM18.8685 10.6281C18.5071 5.04384 22.9918 0.450343 28.1503 0C28.8598 6.4399 22.3492 11.2586 18.8685 10.6281Z" fill="black"/>
</svg>
