<svg width="50" height="49" viewBox="0 0 50 49" fill="none" xmlns="http://www.w3.org/2000/svg">
<path fill-rule="evenodd" clip-rule="evenodd" d="M21.1389 23.1972C22.2469 22.7176 23.2098 21.9359 23.9256 20.9346C24.5835 19.8711 24.9104 18.6229 24.8617 17.3596C24.9044 16.2076 24.6882 15.0611 24.2303 14.011C23.8457 13.1012 23.2282 12.3186 22.4451 11.7484C21.6149 11.1555 20.6721 10.7543 19.6802 10.5718C18.5064 10.3159 17.3091 10.1945 16.1098 10.2098H3.73508C3.39127 10.2098 3.11255 10.484 3.11255 10.8223V38.061C3.11255 38.3992 3.39127 38.6735 3.73508 38.6735H16.3928C17.6048 38.6744 18.8119 38.5147 19.985 38.1983C21.097 37.8994 22.1504 37.4017 23.0983 36.7276C24.0164 36.0663 24.7641 35.1805 25.2754 34.1482C25.8412 32.9938 26.1182 31.7099 26.0809 30.4149C26.1221 28.8101 25.689 27.2308 24.8399 25.8897C23.9268 24.541 22.5725 23.5839 21.03 23.1972H21.1389ZM9.44158 14.8022C9.21237 14.8022 9.02656 14.9851 9.02656 15.2106V21.5397C9.02656 21.7653 9.21237 21.9481 9.44158 21.9481H15.2519C17.2575 21.9481 18.8833 20.3484 18.8833 18.3752C18.8833 16.4019 17.2575 14.8022 15.2519 14.8022H9.44158ZM9.02656 25.9293C9.02656 25.7038 9.21237 25.521 9.44158 25.521H15.5113C17.9466 25.521 19.9209 27.4634 19.9209 29.8595C19.9209 32.2556 17.9466 34.1981 15.5113 34.1981H9.44158C9.21237 34.1981 9.02656 34.0153 9.02656 33.7897V25.9293Z" fill="#006AFF"/>
<path d="M32.0373 11.6578H41.8384C42.1789 11.6578 42.4563 11.9271 42.4609 12.2621L42.4877 14.2274C42.4924 14.5689 42.2123 14.8481 41.8652 14.8481H32.0373C31.6935 14.8481 31.4148 14.5739 31.4148 14.2356V12.2703C31.4148 11.9321 31.6935 11.6578 32.0373 11.6578Z" fill="#006AFF"/>
<path fill-rule="evenodd" clip-rule="evenodd" d="M37.2929 34.4424C38.2969 34.4743 39.2858 34.1818 40.1231 33.6052C40.6624 33.252 41.0919 32.7475 41.3637 32.1527C41.4357 31.9952 41.5901 31.8856 41.7656 31.8856H45.7519C46.0221 31.8856 46.2205 32.136 46.1408 32.3901C45.5331 34.3278 44.3414 36.0169 42.7356 37.2028C41.0093 38.3016 39.0115 38.8522 36.9881 38.7866C35.546 38.8121 34.1124 38.551 32.7646 38.0173C31.5558 37.5192 30.4697 36.7461 29.586 35.7547C28.7319 34.7449 28.0805 33.5679 27.6702 32.2929C27.187 30.8849 26.9511 29.3981 26.9735 27.9034C26.9602 26.4296 27.2036 24.9655 27.6919 23.5818C28.147 22.3001 28.851 21.1294 29.7602 20.1426C30.6719 19.1752 31.7598 18.4061 32.9605 17.88C34.2717 17.3167 35.6782 17.0321 37.097 17.0429C38.6055 17.0186 40.098 17.3676 41.4512 18.061C42.6674 18.7193 43.7243 19.6553 44.5426 20.7988C45.3556 21.9777 45.9466 23.3058 46.2843 24.7131C46.6334 26.1923 46.7583 27.7191 46.6544 29.2384H32.2421C32.1783 30.6974 32.6623 32.1252 33.5918 33.2206C34.0946 33.678 34.6829 34.0226 35.3197 34.2328C35.9566 34.443 36.6283 34.5144 37.2929 34.4424ZM32.3715 25.3144C32.3715 25.4285 32.4655 25.521 32.5815 25.521H40.9808C41.0967 25.521 41.1908 25.4285 41.1908 25.3144C41.1908 23.0324 39.3105 21.1825 36.9911 21.1825H36.5712C34.2518 21.1825 32.3715 23.0324 32.3715 25.3144Z" fill="#006AFF"/>
</svg>
