<svg width="18" height="18" viewBox="0 0 18 18" fill="none" xmlns="http://www.w3.org/2000/svg">
<path d="M3.5625 1.40625C2.6823 1.40625 1.96875 2.1198 1.96875 3C1.96875 3.8802 2.6823 4.59375 3.5625 4.59375C4.4427 4.59375 5.15625 3.8802 5.15625 3C5.15625 2.1198 4.4427 1.40625 3.5625 1.40625Z" fill="black"/>
<path d="M2.0625 5.90625C2.01072 5.90625 1.96875 5.94822 1.96875 6V15.75C1.96875 15.8018 2.01072 15.8438 2.0625 15.8438H5.0625C5.11428 15.8438 5.15625 15.8018 5.15625 15.75V6C5.15625 5.94822 5.11428 5.90625 5.0625 5.90625H2.0625Z" fill="black"/>
<path d="M6.9375 5.90625C6.88572 5.90625 6.84375 5.94822 6.84375 6V15.75C6.84375 15.8018 6.88572 15.8438 6.9375 15.8438H9.9375C9.98928 15.8438 10.0312 15.8018 10.0312 15.75V10.5C10.0312 10.127 10.1794 9.76935 10.4431 9.50563C10.7069 9.24191 11.0645 9.09375 11.4375 9.09375C11.8105 9.09375 12.1681 9.24191 12.4319 9.50563C12.6956 9.76935 12.8438 10.127 12.8438 10.5V15.75C12.8438 15.8018 12.8857 15.8438 12.9375 15.8438H15.9375C15.9893 15.8438 16.0312 15.8018 16.0312 15.75V9.28519C16.0312 7.46513 14.4483 6.04125 12.6374 6.20587C12.0789 6.25665 11.5267 6.39548 11.0111 6.61646L10.0312 7.0364V6C10.0312 5.94822 9.98928 5.90625 9.9375 5.90625H6.9375Z" fill="black"/>
</svg>
