<svg width="18" height="18" viewBox="0 0 18 18" fill="none" xmlns="http://www.w3.org/2000/svg">
<path d="M15.4955 7.65C15.5671 7.65 15.6289 7.70058 15.6415 7.77107C15.7117 8.16537 15.75 8.58975 15.75 9C15.75 10.7292 15.0997 12.3066 14.0302 13.5009C13.9769 13.5605 13.8859 13.5657 13.8248 13.5141L11.9906 11.9616C11.9238 11.9051 11.9196 11.8037 11.9788 11.7392C12.3439 11.3411 12.6307 10.8698 12.8148 10.35H9.15C9.06716 10.35 9 10.2828 9 10.2V7.8C9 7.71716 9.06716 7.65 9.15 7.65H15.4955Z" fill="black"/>
<path d="M10.8545 12.6C10.9097 12.5715 10.9769 12.5779 11.0244 12.6181L12.9501 14.2476C13.0233 14.3095 13.0204 14.4233 12.9427 14.4793C11.8335 15.2789 10.4717 15.75 9 15.75C6.62856 15.75 4.54259 14.5268 3.33863 12.677C3.29659 12.6124 3.31219 12.5267 3.37324 12.4796L5.28221 11.0088C5.35574 10.9522 5.46242 10.9754 5.50959 11.0553C6.21411 12.2491 7.51359 13.05 9 13.05C9.66889 13.05 10.2993 12.8875 10.8545 12.6Z" fill="black"/>
<path d="M5.00934 9.69459C5.01903 9.75064 4.99773 9.80783 4.95266 9.84255L2.90169 11.4228C2.82316 11.4833 2.70856 11.4523 2.6739 11.3594C2.39983 10.625 2.25 9.82997 2.25 9C2.25 8.1356 2.41251 7.30913 2.70865 6.54948C2.74382 6.45926 2.85495 6.42866 2.93303 6.48592L4.9821 7.98866C5.03087 8.02442 5.05313 8.08591 5.04042 8.14504C4.98119 8.42066 4.95 8.70669 4.95 9C4.95 9.23682 4.97033 9.4689 5.00934 9.69459Z" fill="black"/>
<path d="M5.36035 6.87095C5.43226 6.92368 5.53384 6.90226 5.58175 6.82705C6.30064 5.69859 7.56296 4.95 9 4.95C9.98155 4.95 10.8789 5.30205 11.5795 5.88346C11.6407 5.93419 11.7307 5.93179 11.7869 5.87561L13.4862 4.17629C13.5462 4.11625 13.5446 4.01826 13.4812 3.96178C12.289 2.90002 10.7221 2.25 9 2.25C6.66009 2.25 4.59812 3.44085 3.38713 5.2495C3.3431 5.31526 3.3597 5.40373 3.42352 5.45053L5.36035 6.87095Z" fill="black"/>
</svg>
