<svg width="44" height="44" viewBox="0 0 44 44" fill="none" xmlns="http://www.w3.org/2000/svg">
<path d="M11.9284 19.4555C12.2722 19.0773 12.4784 18.5961 12.6159 18.0805C12.7534 17.5648 12.8222 17.0148 12.8222 16.4305V9.83047C12.8222 9.45234 12.6847 9.10859 12.4097 8.86797C12.1691 8.62734 11.8253 8.45547 11.4472 8.45547C10.6909 8.45547 10.1066 9.07422 10.1066 9.79609V16.293C10.1066 17.0492 9.96907 17.5992 9.6597 17.9086C9.3847 18.218 8.90345 18.3898 8.25032 18.3898C7.80345 18.3898 7.39095 18.3211 7.01282 18.1492C7.01282 18.1492 6.97845 18.1492 6.97845 18.1148C6.84095 18.0461 6.66907 18.0461 6.53157 18.0461C6.0847 18.0461 5.6722 18.2867 5.46595 18.7336C5.22532 19.318 5.50032 20.0398 6.0847 20.2461C6.18782 20.2805 6.32532 20.3492 6.42845 20.3836C6.97845 20.5898 7.66595 20.6586 8.45657 20.6586C9.31595 20.6586 10.0034 20.5555 10.5878 20.3148C11.1722 20.143 11.6191 19.868 11.9284 19.4555ZM23.2378 8.59297C22.5159 8.31797 21.7253 8.18047 20.9003 8.18047C20.1097 8.18047 19.3534 8.31797 18.6316 8.59297C17.9097 8.86797 17.2566 9.24609 16.7409 9.79609C16.1909 10.3117 15.7441 10.9992 15.4347 11.7555C15.1253 12.5461 14.9534 13.4398 14.9534 14.4711C14.9534 15.5023 15.1253 16.3961 15.4347 17.1867C15.7441 17.9773 16.1566 18.6305 16.7066 19.1461C17.2566 19.6617 17.8753 20.0742 18.5972 20.3148C19.3191 20.5898 20.1097 20.7273 20.9347 20.7273C21.7941 20.7273 22.5847 20.5898 23.3066 20.3148C24.0284 20.0398 24.6816 19.6617 25.1972 19.1461C25.7128 18.6305 26.1597 17.9773 26.4691 17.1867C26.7784 16.3961 26.9159 15.5023 26.9159 14.4711C26.9159 13.4398 26.7784 12.5461 26.4347 11.7555C26.1253 10.9648 25.6784 10.3117 25.1628 9.79609C24.5784 9.24609 23.9597 8.83359 23.2378 8.59297ZM23.8566 16.0523C23.7191 16.5336 23.5128 16.9461 23.2378 17.2555C22.9628 17.5992 22.6191 17.8742 22.2409 18.0461C21.8284 18.218 21.3816 18.3211 20.9003 18.3211C20.3847 18.3211 19.9378 18.218 19.5597 18.0461C19.1816 17.8742 18.8378 17.5992 18.5628 17.2555C18.2878 16.9117 18.0816 16.4992 17.9441 16.0523C17.8066 15.5711 17.7378 15.0555 17.7378 14.4711C17.7378 13.8867 17.8066 13.3711 17.9441 12.8898C18.0816 12.4086 18.2878 11.9961 18.5628 11.6523C18.8378 11.3086 19.1816 11.0336 19.5597 10.8617C19.9378 10.6555 20.4191 10.5867 20.9003 10.5867C21.3816 10.5867 21.8284 10.6898 22.2409 10.8617C22.6534 11.0336 22.9628 11.3086 23.2378 11.6523C23.5128 11.9961 23.7191 12.4086 23.8566 12.8898C23.9941 13.3711 24.0628 13.9211 24.0628 14.5055C24.0972 15.0555 24.0284 15.5711 23.8566 16.0523ZM38.1909 15.1586C37.9159 14.6773 37.4003 14.2648 36.6441 13.9898C37.5722 13.4398 38.0191 12.6836 38.0191 11.7211C38.0191 11.1023 37.8816 10.5523 37.6409 10.1055C37.3659 9.65859 37.0222 9.31484 36.5409 9.03984C36.0941 8.76484 35.5097 8.59297 34.8909 8.48984C34.2378 8.38672 33.5503 8.31797 32.7941 8.31797H29.1503V20.2805V20.6242H33.1722C34.9941 20.6242 36.3691 20.3148 37.2628 19.6617C38.1909 19.043 38.6378 18.0805 38.6378 16.8086C38.6034 16.2242 38.4659 15.6398 38.1909 15.1586ZM31.7628 10.5523C31.9691 10.518 32.2097 10.518 32.4847 10.518C32.7597 10.518 33.0003 10.518 33.2409 10.518C33.9628 10.518 34.5128 10.6211 34.8566 10.8273C35.2347 11.0336 35.4066 11.3773 35.4066 11.8586C35.4066 12.3398 35.2347 12.6836 34.8566 12.8898C34.5128 13.0961 33.8941 13.1992 33.0691 13.1992H31.7628V10.5523ZM35.1316 18.0805C34.6503 18.3211 33.9972 18.4242 33.1722 18.4242C32.8972 18.4242 32.6566 18.4242 32.4159 18.4242C32.1753 18.4242 31.9691 18.3898 31.7628 18.3555V15.2617H33.4472C34.2378 15.2617 34.8222 15.3648 35.2347 15.6055C35.6472 15.8461 35.8534 16.2242 35.8534 16.8086C35.8878 17.4273 35.6472 17.8398 35.1316 18.0805ZM13.7159 7.59609C14.0253 7.90547 14.2659 8.28359 14.4034 8.66172C14.6784 8.31797 14.9191 8.00859 15.2284 7.69922C16.9472 5.98047 19.3534 4.88047 22.0003 4.88047C23.9597 4.88047 25.8159 5.46484 27.3284 6.49609H32.7941C32.9659 6.49609 33.1378 6.49609 33.3097 6.53047C30.8003 2.98984 26.6753 0.652344 22.0003 0.652344C18.3222 0.652344 14.8503 2.09609 12.2378 4.70859C11.5847 5.36172 11.0003 6.08359 10.4847 6.83984C10.7941 6.73672 11.1378 6.66797 11.4816 6.66797C12.3409 6.66797 13.1316 6.97734 13.7159 7.59609Z" fill="#3787FF"/>
<path d="M27.3283 22.4469V22.3781C25.8158 23.4094 23.9596 23.9938 22.0002 23.9938C19.3533 23.9938 16.9814 22.9281 15.2283 21.175C14.7471 20.6937 14.3346 20.1781 13.9564 19.5938C13.7846 19.9375 13.5783 20.2813 13.3033 20.5906C12.7877 21.2094 12.1002 21.6906 11.2752 22C11.0689 22.0687 10.8627 22.1375 10.6221 22.2062C11.1033 22.8937 11.6533 23.5469 12.2377 24.1312C14.2314 26.125 16.8439 27.5344 19.7658 27.9813C19.9377 28.0156 20.0752 28.0156 20.2471 28.05V29.8719H18.6314L19.0439 40.2875C19.0439 41.0781 19.3533 41.8344 19.9033 42.3844C20.4533 42.9344 21.2096 43.2438 22.0002 43.2438C22.7908 43.2438 23.5471 42.9344 24.0971 42.3844C24.6471 41.8344 24.9564 41.0781 24.9564 40.2875L25.5752 29.8719H23.7877V28.05C24.0283 28.0156 24.2689 27.9813 24.5096 27.9469C27.2596 27.4656 29.7689 26.125 31.7627 24.1312C32.3127 23.5812 32.8283 22.9625 33.2752 22.3438C33.2408 22.3438 33.2064 22.3438 33.1377 22.3438H27.3283V22.4469Z" fill="#3787FF"/>
</svg>
