<svg width="95" height="32" viewBox="0 0 95 32" fill="none" xmlns="http://www.w3.org/2000/svg">
<path d="M34.8333 29.4676V7.43701H23.5535L17.4477 21.7499L11.3419 7.43701H0V29.4676H6.16715L6.01557 13.0012H7.11496L14.8603 29.4676H20.0486L27.7947 13.0012H28.8163L28.6669 29.4676H34.8333Z" fill="black"/>
<path d="M45.4037 29.4676H51.9956V29.3179V13.0456H61.0993V7.43701H36.2605V13.046H45.4037V29.3183V29.4676Z" fill="black"/>
<path d="M93.3112 30.1455C89.2596 25.7227 84.0844 20.267 80.1847 16.8159C78.1258 14.9866 75.7996 13.0745 73.2254 11.1559C71.169 9.62631 68.9608 8.09669 66.5929 6.60967C66.5929 6.60967 70.0167 8.17572 73.7488 10.4873C75.8613 11.7947 78.0645 13.3433 79.8118 14.9829L80.2808 14.3827L87.8746 4.67724H78.2964L74.2787 9.81242C74.2787 9.81242 53.9624 -6.80296 33.4287 3.20844C33.4287 3.20844 52.7731 -3.39007 71.9824 12.7435C74.1374 14.5546 76.2923 16.6484 78.4184 19.0739C78.73 19.4279 79.0393 19.7881 79.3501 20.1578C79.3501 20.1578 78.9484 19.7936 78.2979 19.228C76.7397 17.8641 73.7414 15.303 71.3217 13.5921C69.8644 12.5647 68.7142 11.9386 68.0276 11.8843C68.0276 11.8843 64.8101 11.5547 69.2785 16.2033C69.2785 16.2033 71.5105 18.6901 72.7549 20.959C72.7549 20.959 69.8932 17.2213 68.586 17.0862L59.0966 29.3177H68.6492L73.3788 23.205L74.2148 22.1365C73.2579 20.337 71.8772 17.8961 70.4685 15.9568L70.4488 15.9287C70.2906 15.7146 70.1358 15.5052 69.9791 15.3038C69.8878 15.1872 69.8012 15.0696 69.7037 14.9531L70.0349 15.2331C70.9481 16.0158 73.664 18.3652 76.731 21.2293C78.3563 22.7476 83.3488 27.8471 87.33 32H95.0001C94.4654 31.41 93.9004 30.7887 93.3112 30.1455Z" fill="black"/>
</svg>
