<svg width="24" height="21" viewBox="0 0 24 21" fill="none" xmlns="http://www.w3.org/2000/svg">
<path d="M20.3199 11.9616V16.7045C20.3199 17.8878 19.9134 18.8995 19.1004 19.7397C18.2874 20.5799 17.3085 21 16.1636 21H4.15634C3.01143 21 2.03247 20.5799 1.21948 19.7397C0.406494 18.8995 0 17.8878 0 16.7045V4.29545C0 3.11222 0.406494 2.1005 1.21948 1.2603C2.03247 0.420099 3.01143 0 4.15634 0H16.1636C16.7697 0 17.3325 0.12429 17.8521 0.372869C17.9964 0.442472 18.083 0.556818 18.1118 0.715909C18.1407 0.884943 18.0974 1.02912 17.982 1.14844L17.2748 1.87926C17.1786 1.97869 17.0679 2.02841 16.9429 2.02841C16.914 2.02841 16.8707 2.01847 16.813 1.99858C16.5917 1.93892 16.3752 1.90909 16.1636 1.90909H4.15634C3.52135 1.90909 2.97775 2.14276 2.52556 2.61009C2.07336 3.07741 1.84726 3.6392 1.84726 4.29545V16.7045C1.84726 17.3608 2.07336 17.9226 2.52556 18.3899C2.97775 18.8572 3.52135 19.0909 4.15634 19.0909H16.1636C16.7986 19.0909 17.3422 18.8572 17.7943 18.3899C18.2465 17.9226 18.4726 17.3608 18.4726 16.7045V12.9162C18.4726 12.7869 18.5159 12.6776 18.6025 12.5881L19.5262 11.6335C19.6224 11.5341 19.733 11.4844 19.8581 11.4844C19.9158 11.4844 19.9735 11.4993 20.0313 11.5291C20.2237 11.6087 20.3199 11.7528 20.3199 11.9616ZM23.6536 4.66832L11.9062 16.8089C11.6753 17.0476 11.4011 17.1669 11.0836 17.1669C10.7661 17.1669 10.4919 17.0476 10.261 16.8089L4.05532 10.3956C3.82441 10.157 3.70896 9.87358 3.70896 9.54545C3.70896 9.21733 3.82441 8.93395 4.05532 8.69531L5.64281 7.05469C5.87372 6.81605 6.14793 6.69673 6.46542 6.69673C6.78292 6.69673 7.05713 6.81605 7.28803 7.05469L11.0836 10.9773L20.4209 1.32741C20.6518 1.08878 20.926 0.96946 21.2435 0.96946C21.561 0.96946 21.8352 1.08878 22.0661 1.32741L23.6536 2.96804C23.8845 3.20668 24 3.49006 24 3.81818C24 4.14631 23.8845 4.42969 23.6536 4.66832Z" fill="#04C600"/>
</svg>
