<svg width="149" height="141" viewBox="0 0 149 141" fill="none" xmlns="http://www.w3.org/2000/svg">
<path d="M70.5 141C109.436 141 141 109.436 141 70.5C141 31.5639 109.436 0 70.5 0C31.5639 0 0 31.5639 0 70.5C0 109.436 31.5639 141 70.5 141Z" fill="#F0F6FF"/>
<path opacity="0.2" d="M18.4449 23.4116C11.8689 38.7942 10.9768 56.0139 15.9281 71.9937C20.8794 87.9734 31.3515 101.672 45.473 110.641C59.5945 119.611 76.4452 123.267 93.0141 120.956C109.583 118.645 124.79 110.518 135.919 98.0267C131.902 107.425 125.889 115.837 118.298 122.681C110.707 129.525 101.719 134.637 91.9561 137.662C82.1934 140.687 71.8896 141.554 61.7588 140.201C51.6279 138.849 41.9122 135.31 33.2847 129.831C24.6573 124.351 17.3243 117.061 11.794 108.465C6.2636 99.8702 2.66808 90.1754 1.25649 80.0527C-0.155094 69.9299 0.651003 59.6213 3.61895 49.841C6.58689 40.0608 11.6457 31.0427 18.4449 23.4116Z" fill="#3787FF"/>
<path d="M112.992 110.199L44.1688 127.921C41.8342 128.52 39.3576 128.168 37.2823 126.942C35.2071 125.717 33.7026 123.718 33.0989 121.385L12.285 40.558C11.6866 38.2234 12.0387 35.7468 13.2641 33.6715C14.4894 31.5963 16.4879 30.0918 18.8211 29.4881L82.8498 13L99.2382 20.3365L119.528 99.1287C120.126 101.463 119.774 103.94 118.549 106.015C117.324 108.09 115.325 109.595 112.992 110.199Z" fill="#F2F2F2"/>
<path d="M19.4734 32.0221C17.8119 32.4519 16.3887 33.5233 15.5161 35.0012C14.6435 36.479 14.3928 38.2426 14.8189 39.9051L35.6328 120.732C36.0627 122.394 37.1341 123.817 38.6119 124.69C40.0898 125.562 41.8534 125.813 43.5159 125.387L112.339 107.664C114.001 107.234 115.424 106.163 116.296 104.685C117.169 103.207 117.42 101.444 116.994 99.781L97.0181 22.2097L82.6157 15.7622L19.4734 32.0221Z" fill="white"/>
<path d="M99.0633 20.7532L88.412 23.496C87.6344 23.6962 86.8091 23.5794 86.1177 23.1711C85.4263 22.7629 84.9254 22.0967 84.7252 21.3191L82.6993 13.4522C82.6905 13.4178 82.6915 13.3815 82.7023 13.3476C82.7131 13.3138 82.7332 13.2836 82.7603 13.2606C82.7875 13.2376 82.8205 13.2228 82.8557 13.2177C82.891 13.2127 82.9269 13.2177 82.9594 13.2321L99.0929 20.397C99.1288 20.4129 99.1589 20.4397 99.1789 20.4735C99.1989 20.5073 99.2079 20.5465 99.2047 20.5856C99.2014 20.6248 99.1861 20.6619 99.1608 20.6919C99.1354 20.722 99.1014 20.7434 99.0633 20.7532Z" fill="#F2F2F2"/>
<path d="M93.4601 89.779L62.1259 97.8479C61.9334 97.8975 61.733 97.9087 61.5361 97.8808C61.3393 97.8529 61.1499 97.7866 60.9787 97.6855C60.8076 97.5844 60.658 97.4506 60.5385 97.2917C60.419 97.1329 60.332 96.952 60.2824 96.7595C60.2329 96.567 60.2217 96.3666 60.2496 96.1698C60.2774 95.973 60.3438 95.7835 60.4449 95.6124C60.5459 95.4412 60.6797 95.2916 60.8386 95.1721C60.9975 95.0527 61.1784 94.9656 61.3709 94.9161L92.7051 86.8471C92.8976 86.7976 93.098 86.7864 93.2948 86.8143C93.4917 86.8421 93.6811 86.9085 93.8523 87.0096C94.0234 87.1106 94.173 87.2444 94.2925 87.4033C94.412 87.5622 94.499 87.7431 94.5485 87.9356C94.5981 88.1281 94.6093 88.3285 94.5814 88.5253C94.5535 88.7221 94.4872 88.9115 94.3861 89.0827C94.285 89.2539 94.1512 89.4035 93.9924 89.5229C93.8335 89.6424 93.6526 89.7294 93.4601 89.779Z" fill="#CCCCCC"/>
<path d="M100.78 93.1688L63.3993 102.795C63.0105 102.895 62.5979 102.837 62.2522 102.632C61.9065 102.428 61.656 102.095 61.5559 101.706C61.4558 101.318 61.5142 100.905 61.7183 100.559C61.9224 100.214 62.2555 99.9632 62.6443 99.863L100.026 90.2369C100.414 90.1372 100.826 90.1959 101.172 90.4001C101.517 90.6042 101.768 90.9372 101.868 91.3257C101.968 91.7143 101.909 92.1267 101.706 92.4723C101.502 92.8179 101.169 93.0684 100.78 93.1688Z" fill="#CCCCCC"/>
<path d="M49.3366 107.566C52.2915 107.566 54.6869 105.17 54.6869 102.216C54.6869 99.2606 52.2915 96.8652 49.3366 96.8652C46.3817 96.8652 43.9863 99.2606 43.9863 102.216C43.9863 105.17 46.3817 107.566 49.3366 107.566Z" fill="#E6E6E6"/>
<path d="M90.1283 75.7762L48.5134 86.4885C47.3107 86.7967 46.0349 86.6152 44.9659 85.9839C43.8968 85.3525 43.1219 84.3229 42.811 83.1209L34.0901 49.2421C33.7819 48.0394 33.9634 46.7636 34.5948 45.6946C35.2261 44.6255 36.2557 43.8506 37.4577 43.5397L79.0726 32.8274C80.2753 32.5192 81.5511 32.7007 82.6202 33.3321C83.6892 33.9634 84.4641 34.993 84.775 36.195L93.4959 70.0738C93.8041 71.2765 93.6226 72.5523 92.9913 73.6213C92.3599 74.6904 91.3303 75.4653 90.1283 75.7762Z" fill="white"/>
<path d="M90.1283 75.7762L48.5134 86.4885C47.3107 86.7967 46.0349 86.6152 44.9659 85.9839C43.8968 85.3525 43.1219 84.3229 42.811 83.1209L34.0901 49.2421C33.7819 48.0394 33.9634 46.7636 34.5948 45.6946C35.2261 44.6255 36.2557 43.8506 37.4577 43.5397L79.0726 32.8274C80.2753 32.5192 81.5511 32.7007 82.6202 33.3321C83.6892 33.9634 84.4641 34.993 84.775 36.195L93.4959 70.0738C93.8041 71.2765 93.6226 72.5523 92.9913 73.6213C92.3599 74.6904 91.3303 75.4653 90.1283 75.7762ZM37.595 44.0732C36.5344 44.3475 35.626 45.0313 35.0689 45.9746C34.5119 46.9178 34.3517 48.0435 34.6236 49.1047L43.3446 82.9836C43.6188 84.0442 44.3026 84.9526 45.2459 85.5097C46.1891 86.0667 47.3148 86.2269 48.376 85.955L89.991 75.2426C91.0516 74.9684 91.9601 74.2846 92.5171 73.3413C93.0742 72.3981 93.2343 71.2724 92.9624 70.2112L84.2415 36.3323C83.9672 35.2717 83.2834 34.3633 82.3401 33.8062C81.3969 33.2492 80.2712 33.089 79.21 33.3609L37.595 44.0732Z" fill="#E6E6E6"/>
<path d="M76.9614 44.2187L55.9589 49.6251C55.7752 49.6764 55.579 49.656 55.4098 49.5681C55.2407 49.4802 55.1112 49.3314 55.0475 49.1517C55.0179 49.0578 55.0077 48.9589 55.0176 48.861C55.0274 48.763 55.0572 48.6681 55.1049 48.5821C55.1527 48.496 55.2175 48.4205 55.2954 48.3603C55.3732 48.3001 55.4626 48.2564 55.5579 48.2319L76.9372 42.7285C77.8008 43.1661 77.5736 44.0611 76.9612 44.2188L76.9614 44.2187Z" fill="#F2F2F2"/>
<path d="M77.9101 47.9023L56.9076 53.3087C56.724 53.36 56.5277 53.3396 56.3586 53.2517C56.1894 53.1638 56.0599 53.015 55.9962 52.8353C55.9666 52.7414 55.9564 52.6425 55.9663 52.5446C55.9762 52.4466 56.0059 52.3517 56.0537 52.2657C56.1014 52.1796 56.1662 52.1041 56.2441 52.0439C56.322 51.9837 56.4113 51.94 56.5066 51.9155L77.8859 46.4121C78.7495 46.8497 78.5223 47.7447 77.9099 47.9024L77.9101 47.9023Z" fill="#F2F2F2"/>
<path d="M52.907 56.576L46.4972 58.226C46.2879 58.2796 46.0658 58.248 45.8797 58.1381C45.6936 58.0282 45.5587 57.849 45.5047 57.6398L43.5575 50.0757C43.5039 49.8664 43.5355 49.6443 43.6454 49.4582C43.7552 49.2722 43.9345 49.1373 44.1437 49.0832L50.5535 47.4332C50.7628 47.3796 50.9849 47.4112 51.1709 47.5211C51.357 47.631 51.4919 47.8102 51.546 48.0194L53.4931 55.5834C53.5468 55.7928 53.5152 56.0149 53.4053 56.2009C53.2954 56.387 53.1162 56.5219 52.907 56.576V56.576Z" fill="#E6E6E6"/>
<path d="M79.7904 55.4615L47.7367 63.7126C47.5531 63.7639 47.3568 63.7435 47.1877 63.6556C47.0185 63.5677 46.889 63.4189 46.8253 63.2392C46.7957 63.1453 46.7855 63.0464 46.7954 62.9485C46.8053 62.8505 46.835 62.7556 46.8828 62.6696C46.9305 62.5835 46.9953 62.508 47.0732 62.4478C47.1511 62.3876 47.2404 62.3439 47.3357 62.3194L79.7664 53.9712C80.6301 54.4088 80.4028 55.3038 79.7904 55.4615L79.7904 55.4615Z" fill="#F2F2F2"/>
<path d="M80.7387 59.1465L48.6849 67.3977C48.5013 67.4489 48.3051 67.4285 48.1359 67.3407C47.9667 67.2528 47.8372 67.104 47.7736 66.9243C47.744 66.8304 47.7338 66.7315 47.7436 66.6335C47.7535 66.5356 47.7832 66.4407 47.831 66.3546C47.8788 66.2685 47.9436 66.1931 48.0214 66.1329C48.0993 66.0727 48.1886 66.029 48.284 66.0044L80.7147 57.6562C81.5783 58.0938 81.3511 58.9889 80.7387 59.1465V59.1465Z" fill="#F2F2F2"/>
<path d="M81.6864 62.8291L49.6327 71.0803C49.4491 71.1315 49.2528 71.1112 49.0837 71.0233C48.9145 70.9354 48.785 70.7866 48.7213 70.6069C48.6917 70.513 48.6815 70.4141 48.6914 70.3161C48.7013 70.2182 48.731 70.1233 48.7787 70.0372C48.8265 69.9512 48.8913 69.8757 48.9692 69.8155C49.0471 69.7553 49.1364 69.7116 49.2317 69.6871L81.6624 61.3389C82.5261 61.7765 82.2988 62.6715 81.6864 62.8291Z" fill="#F2F2F2"/>
<path d="M82.6347 66.5137L50.5809 74.7648C50.3973 74.8161 50.2011 74.7957 50.0319 74.7079C49.8627 74.62 49.7332 74.4711 49.6696 74.2914C49.64 74.1976 49.6298 74.0986 49.6396 74.0007C49.6495 73.9028 49.6792 73.8079 49.727 73.7218C49.7747 73.6357 49.8395 73.5603 49.9174 73.5001C49.9953 73.4399 50.0846 73.3962 50.18 73.3716L82.6107 65.0234C83.4743 65.461 83.2471 66.3561 82.6347 66.5137L82.6347 66.5137Z" fill="#F2F2F2"/>
<path d="M83.5831 70.1968L51.5294 78.4479C51.3458 78.4992 51.1496 78.4788 50.9804 78.391C50.8112 78.3031 50.6817 78.1542 50.6181 77.9745C50.5884 77.8807 50.5783 77.7818 50.5881 77.6838C50.598 77.5859 50.6277 77.491 50.6755 77.4049C50.7232 77.3188 50.788 77.2434 50.8659 77.1832C50.9438 77.123 51.0331 77.0793 51.1284 77.0547L83.5592 68.7065C84.4228 69.1441 84.1955 70.0392 83.5831 70.1968Z" fill="#F2F2F2"/>
<path d="M49.7313 104.091C49.6148 104.122 49.4916 104.113 49.3803 104.067L49.3734 104.064L47.9159 103.446C47.8483 103.418 47.7869 103.376 47.7354 103.324C47.6839 103.271 47.6432 103.209 47.6157 103.141C47.5881 103.073 47.5743 103 47.575 102.927C47.5756 102.853 47.5908 102.781 47.6195 102.713C47.6482 102.646 47.69 102.584 47.7425 102.533C47.7949 102.482 47.857 102.441 47.9251 102.414C47.9933 102.386 48.0662 102.372 48.1396 102.373C48.2131 102.374 48.2856 102.389 48.3532 102.418L49.2976 102.82L50.5353 99.9084C50.564 99.8409 50.6057 99.7797 50.658 99.7283C50.7104 99.6769 50.7723 99.6363 50.8404 99.6089C50.9084 99.5815 50.9811 99.5677 51.0545 99.5684C51.1278 99.5691 51.2003 99.5842 51.2678 99.6129L51.268 99.613L51.2606 99.632L51.2683 99.6129C51.4046 99.671 51.5122 99.7808 51.5675 99.9182C51.6229 100.056 51.6215 100.209 51.5637 100.346L50.1077 103.769C50.0739 103.848 50.0224 103.918 49.9572 103.974C49.892 104.029 49.8148 104.07 49.7316 104.091L49.7313 104.091Z" fill="white"/>
<path d="M139.389 141H68.3209C65.9108 140.998 63.6003 140.039 61.8962 138.335C60.192 136.631 59.2334 134.32 59.2307 131.91V48.4461C59.2334 46.0361 60.192 43.7256 61.8962 42.0214C63.6003 40.3173 65.9108 39.3587 68.3209 39.356H134.438L148.479 50.5476V131.91C148.477 134.32 147.518 136.631 145.814 138.335C144.11 140.039 141.799 140.998 139.389 141Z" fill="#E6E6E6"/>
<path d="M68.321 41.9717C66.6047 41.9736 64.9593 42.6562 63.7458 43.8698C62.5322 45.0834 61.8496 46.7287 61.8477 48.445V131.909C61.8496 133.625 62.5322 135.271 63.7458 136.484C64.9593 137.698 66.6047 138.38 68.321 138.382H139.389C141.106 138.38 142.751 137.698 143.965 136.484C145.178 135.271 145.861 133.625 145.863 131.909V51.8071L133.523 41.9717H68.321Z" fill="white"/>
<path d="M125.567 66.2414H93.2105C92.8091 66.2414 92.424 66.0819 92.1401 65.798C91.8563 65.5141 91.6968 65.1291 91.6968 64.7276C91.6968 64.3261 91.8563 63.9411 92.1401 63.6572C92.424 63.3734 92.8091 63.2139 93.2105 63.2139H125.567C125.968 63.2139 126.354 63.3734 126.637 63.6572C126.921 63.9411 127.081 64.3261 127.081 64.7276C127.081 65.1291 126.921 65.5141 126.637 65.798C126.354 66.0819 125.968 66.2414 125.567 66.2414Z" fill="#3787FF"/>
<path d="M131.811 71.3503H93.2102C92.8091 71.3497 92.4246 71.19 92.1411 70.9062C91.8577 70.6223 91.6985 70.2376 91.6985 69.8365C91.6985 69.4354 91.8577 69.0507 92.1411 68.7668C92.4246 68.483 92.8091 68.3233 93.2102 68.3228H131.811C132.01 68.3225 132.207 68.3614 132.391 68.4374C132.575 68.5133 132.742 68.6248 132.883 68.7654C133.023 68.906 133.135 69.073 133.211 69.2567C133.287 69.4405 133.327 69.6375 133.327 69.8365C133.327 70.0355 133.287 70.2325 133.211 70.4163C133.135 70.6001 133.023 70.767 132.883 70.9076C132.742 71.0482 132.575 71.1597 132.391 71.2356C132.207 71.3116 132.01 71.3505 131.811 71.3503Z" fill="#3787FF"/>
<path d="M125.568 86.1089H93.2121C92.8107 86.1089 92.4257 86.2684 92.1418 86.5522C91.858 86.8361 91.6985 87.2211 91.6985 87.6225C91.6985 88.024 91.858 88.409 92.1418 88.6928C92.4257 88.9767 92.8107 89.1362 93.2121 89.1362H125.568C125.969 89.1362 126.354 88.9767 126.638 88.6928C126.922 88.409 127.081 88.024 127.081 87.6225C127.081 87.2211 126.922 86.8361 126.638 86.5522C126.354 86.2684 125.969 86.1089 125.568 86.1089Z" fill="#CCCCCC"/>
<path d="M131.812 91.2183H93.2121C92.8107 91.2183 92.4257 91.3777 92.1418 91.6616C91.858 91.9455 91.6985 92.3305 91.6985 92.7319C91.6985 93.1334 91.858 93.5184 92.1418 93.8022C92.4257 94.0861 92.8107 94.2456 93.2121 94.2456H131.812C132.214 94.2456 132.599 94.0861 132.883 93.8022C133.166 93.5184 133.326 93.1334 133.326 92.7319C133.326 92.3305 133.166 91.9455 132.883 91.6616C132.599 91.3777 132.214 91.2183 131.812 91.2183Z" fill="#CCCCCC"/>
<path d="M125.567 112.033H93.2105C92.8091 112.033 92.424 111.873 92.1401 111.59C91.8563 111.306 91.6968 110.921 91.6968 110.519C91.6968 110.118 91.8563 109.733 92.1401 109.449C92.424 109.165 92.8091 109.005 93.2105 109.005H125.567C125.968 109.005 126.354 109.165 126.637 109.449C126.921 109.733 127.081 110.118 127.081 110.519C127.081 110.921 126.921 111.306 126.637 111.59C126.354 111.873 125.968 112.033 125.567 112.033Z" fill="#CCCCCC"/>
<path d="M131.811 117.142H93.2102C92.8091 117.141 92.4246 116.982 92.1411 116.698C91.8577 116.414 91.6985 116.029 91.6985 115.628C91.6985 115.227 91.8577 114.842 92.1411 114.558C92.4246 114.275 92.8091 114.115 93.2102 114.114H131.811C132.01 114.114 132.207 114.153 132.391 114.229C132.575 114.305 132.742 114.416 132.883 114.557C133.023 114.697 133.135 114.864 133.211 115.048C133.287 115.232 133.327 115.429 133.327 115.628C133.327 115.827 133.287 116.024 133.211 116.208C133.135 116.392 133.023 116.559 132.883 116.699C132.742 116.84 132.575 116.951 132.391 117.027C132.207 117.103 132.01 117.142 131.811 117.142Z" fill="#CCCCCC"/>
<path d="M79.7365 72.6317C82.6914 72.6317 85.0868 70.2363 85.0868 67.2814C85.0868 64.3266 82.6914 61.9312 79.7365 61.9312C76.7816 61.9312 74.3862 64.3266 74.3862 67.2814C74.3862 70.2363 76.7816 72.6317 79.7365 72.6317Z" fill="#3787FF"/>
<path d="M79.2066 69.3226C79.0862 69.3228 78.9691 69.2838 78.8728 69.2116L78.8668 69.2071L77.6094 68.2453C77.551 68.2007 77.502 68.145 77.4651 68.0815C77.4282 68.0179 77.4042 67.9477 77.3945 67.8749C77.3848 67.802 77.3896 67.728 77.4085 67.657C77.4275 67.586 77.4603 67.5194 77.505 67.4611C77.5497 67.4028 77.6055 67.3539 77.6691 67.3172C77.7327 67.2804 77.803 67.2566 77.8759 67.2471C77.9487 67.2375 78.0227 67.2424 78.0937 67.2615C78.1647 67.2806 78.2311 67.3135 78.2893 67.3584L79.1038 67.9829L81.0283 65.4721C81.073 65.4139 81.1286 65.3651 81.1921 65.3284C81.2556 65.2917 81.3257 65.2678 81.3985 65.2582C81.4712 65.2486 81.5451 65.2534 81.6159 65.2724C81.6868 65.2913 81.7532 65.3241 81.8114 65.3687L81.8116 65.3688L81.7997 65.3854L81.8119 65.3688C81.9294 65.4591 82.0062 65.5922 82.0256 65.7391C82.0449 65.8859 82.0053 66.0344 81.9152 66.1521L79.6515 69.104C79.5992 69.172 79.5318 69.227 79.4548 69.2648C79.3777 69.3026 79.2929 69.3222 79.2071 69.3219L79.2066 69.3226Z" fill="white"/>
<path d="M85.6367 90.1767C85.637 90.8794 85.4988 91.5753 85.2301 92.2246C84.9614 92.8739 84.5674 93.4639 84.0707 93.9609C83.5739 94.4579 82.9841 94.8522 82.335 95.1212C81.6858 95.3903 80.99 95.5288 80.2873 95.5289C80.2413 95.5298 80.1953 95.528 80.1496 95.5234C79.0976 95.4964 78.0769 95.1598 77.2153 94.5556C76.3536 93.9514 75.6893 93.1066 75.3054 92.1267C74.9215 91.1469 74.8352 90.0756 75.0571 89.0469C75.279 88.0182 75.7994 87.0779 76.5531 86.3434C77.3068 85.609 78.2604 85.1132 79.2945 84.918C80.3285 84.7228 81.3972 84.837 82.3668 85.2461C83.3363 85.6553 84.1637 86.3413 84.7453 87.2183C85.327 88.0953 85.637 89.1244 85.6367 90.1767Z" fill="#CCCCCC"/>
<path d="M79.7365 118.423C82.6914 118.423 85.0868 116.028 85.0868 113.073C85.0868 110.118 82.6914 107.723 79.7365 107.723C76.7816 107.723 74.3862 110.118 74.3862 113.073C74.3862 116.028 76.7816 118.423 79.7365 118.423Z" fill="#CCCCCC"/>
<path d="M148.207 50.9072H137.208C136.405 50.9072 135.635 50.5882 135.067 50.0205C134.499 49.4527 134.18 48.6826 134.18 47.8797V39.7561C134.18 39.7205 134.19 39.6857 134.209 39.6556C134.228 39.6254 134.255 39.6012 134.287 39.5858C134.319 39.5703 134.355 39.5641 134.39 39.568C134.425 39.5719 134.459 39.5857 134.487 39.6078L148.324 50.5697C148.355 50.594 148.377 50.6274 148.388 50.6651C148.399 50.7029 148.398 50.7431 148.385 50.7802C148.372 50.8173 148.348 50.8494 148.316 50.8722C148.284 50.895 148.246 50.9072 148.207 50.9072Z" fill="#CCCCCC"/>
<path d="M85.6371 90.1769C85.6374 90.8796 85.4992 91.5755 85.2305 92.2248C84.9618 92.8741 84.5679 93.4641 84.0711 93.9611C83.5744 94.4581 82.9846 94.8524 82.3354 95.1214C81.6862 95.3904 80.9904 95.529 80.2877 95.5291C80.2418 95.53 80.1958 95.5281 80.15 95.5236C79.4588 93.7995 79.1923 91.9346 79.3731 90.086C79.5538 88.2374 80.1765 86.4594 81.1885 84.9019C82.4331 85.1152 83.5621 85.7616 84.3762 86.7269C85.1903 87.6922 85.6369 88.9142 85.6371 90.1769Z" fill="#3787FF"/>
<path d="M91.6968 87.6239C91.6975 87.2223 91.8573 86.8374 92.1413 86.5534C92.4253 86.2695 92.8102 86.1096 93.2118 86.1089H101.274C101.745 87.0667 102.08 88.0857 102.269 89.1362H93.2118C92.8105 89.1361 92.4256 88.9768 92.1416 88.6933C91.8576 88.4098 91.6976 88.0252 91.6968 87.6239Z" fill="#3787FF"/>
<path d="M102.457 91.2183C102.457 92.2407 102.322 93.2587 102.054 94.2456H93.2121C92.8107 94.2456 92.4257 94.0861 92.1418 93.8022C91.858 93.5184 91.6985 93.1334 91.6985 92.7319C91.6985 92.3305 91.858 91.9455 92.1418 91.6616C92.4257 91.3777 92.8107 91.2183 93.2121 91.2183H102.457Z" fill="#3787FF"/>
<path d="M122.405 109.888C122.177 110.263 121.81 110.531 121.383 110.634C120.957 110.737 120.508 110.667 120.134 110.439L100.85 98.6765C100.665 98.5635 100.504 98.4151 100.376 98.2398C100.248 98.0644 100.156 97.8656 100.105 97.6547C100.053 97.4438 100.044 97.2248 100.078 97.0104C100.111 96.7959 100.187 96.5902 100.3 96.4049C100.413 96.2196 100.561 96.0584 100.737 95.9304C100.912 95.8025 101.111 95.7104 101.322 95.6593C101.533 95.6082 101.752 95.5991 101.966 95.6326C102.18 95.6661 102.386 95.7415 102.572 95.8546L121.855 107.617C122.229 107.845 122.497 108.213 122.601 108.639C122.704 109.065 122.634 109.514 122.405 109.888Z" fill="#3F3D56"/>
<path d="M103.122 98.1258C101.76 100.358 99.7666 102.137 97.394 103.237C95.0214 104.336 92.3759 104.708 89.7922 104.304C87.2085 103.9 84.8025 102.74 82.8786 100.968C80.9546 99.1972 79.599 96.8953 78.9833 94.3538C78.3676 91.8122 78.5193 89.1452 79.4194 86.6899C80.3194 84.2346 81.9274 82.1013 84.0398 80.5598C86.1523 79.0184 88.6744 78.1379 91.2872 78.0299C93.9001 77.9218 96.4863 78.5909 98.7188 79.9527C101.709 81.7815 103.853 84.7219 104.678 88.1289C105.503 91.5358 104.944 95.131 103.122 98.1258ZM83.3677 86.0767C82.3464 87.7511 81.8445 89.6908 81.9256 91.6504C82.0066 93.61 82.6669 95.5016 83.823 97.086C84.9791 98.6703 86.5791 99.8762 88.4206 100.551C90.2621 101.226 92.2623 101.34 94.1685 100.878C96.0747 100.417 97.8011 99.3999 99.1294 97.9569C100.458 96.5139 101.328 94.7094 101.631 92.7716C101.934 90.8339 101.655 88.8498 100.831 87.0703C100.006 85.2909 98.6719 83.796 96.9975 82.7747C94.7514 81.4081 92.055 80.9883 89.4998 81.6074C86.9446 82.2264 84.7393 83.8337 83.3677 86.0767Z" fill="#3F3D56"/>
</svg>
