<svg width="297" height="302" viewBox="0 0 297 302" fill="none" xmlns="http://www.w3.org/2000/svg">
<path d="M152.894 0.187579L77.9724 17.0435C75.965 17.4975 74.2198 18.7293 73.1194 20.4685C72.019 22.2077 71.6535 24.3123 72.1029 26.3207L92.6472 117.637L180.676 97.8328C181.399 97.6725 182.061 97.3072 182.583 96.7807L162.172 6.05713C161.718 4.04977 160.486 2.30447 158.747 1.20411C157.007 0.103742 154.903 -0.261826 152.894 0.187579V0.187579Z" fill="#E3E0E0"/>
<path d="M125.679 12.7613L84.6201 21.9988C82.7922 22.4119 81.2027 23.5331 80.2004 25.1166C79.198 26.7 78.8646 28.6164 79.2732 30.4453L98.5889 116.301L176.771 98.7111L162.704 36.1865C160.892 28.1752 155.977 21.2098 149.035 16.8182C142.094 12.4267 133.695 10.9677 125.679 12.7613V12.7613Z" fill="white"/>
<path d="M161.737 94.0831L110.193 105.679C109.972 105.729 109.763 105.821 109.578 105.951C109.393 106.081 109.235 106.247 109.114 106.438C108.993 106.629 108.91 106.842 108.871 107.065C108.833 107.288 108.838 107.517 108.888 107.738C108.938 107.959 109.031 108.168 109.161 108.353C109.292 108.538 109.457 108.695 109.649 108.816C109.84 108.937 110.054 109.019 110.277 109.057C110.5 109.095 110.728 109.089 110.949 109.039L162.492 97.443C162.714 97.3938 162.923 97.3016 163.108 97.1714C163.294 97.0413 163.452 96.8759 163.573 96.6846C163.694 96.4934 163.777 96.28 163.816 96.0568C163.854 95.8337 163.849 95.605 163.799 95.384C163.749 95.163 163.657 94.954 163.526 94.7689C163.395 94.5839 163.229 94.4264 163.038 94.3056C162.846 94.1847 162.633 94.1028 162.409 94.0647C162.186 94.0265 161.957 94.0328 161.737 94.0831Z" fill="#E6E6E6"/>
<path d="M160.242 87.4385L108.698 99.0347C108.252 99.135 107.864 99.4085 107.62 99.7948C107.376 100.181 107.295 100.649 107.395 101.095C107.495 101.541 107.769 101.929 108.155 102.173C108.541 102.417 109.009 102.498 109.455 102.398L160.998 90.8018C161.219 90.7521 161.428 90.6594 161.613 90.529C161.798 90.3986 161.956 90.233 162.077 90.0417C162.198 89.8505 162.28 89.6372 162.318 89.4142C162.357 89.1911 162.351 88.9627 162.302 88.7418C162.252 88.521 162.159 88.3121 162.029 88.1271C161.898 87.9421 161.733 87.7846 161.541 87.6635C161.35 87.5425 161.137 87.4603 160.914 87.4217C160.691 87.3831 160.462 87.3888 160.242 87.4385H160.242Z" fill="#E6E6E6"/>
<path d="M129.547 87.3672L107.204 92.394C106.759 92.4943 106.371 92.7674 106.127 93.1533C105.883 93.5392 105.802 94.0063 105.902 94.4519C106.002 94.8974 106.276 95.2849 106.662 95.5291C107.047 95.7733 107.515 95.8541 107.96 95.7539L130.303 90.7271C130.524 90.678 130.734 90.5858 130.919 90.4556C131.105 90.3255 131.262 90.1601 131.384 89.9688C131.505 89.7775 131.588 89.5642 131.626 89.341C131.665 89.1178 131.66 88.8892 131.61 88.6682C131.56 88.4472 131.467 88.2382 131.337 88.0531C131.206 87.8681 131.04 87.7106 130.849 87.5897C130.657 87.4689 130.443 87.387 130.22 87.3489C129.997 87.3107 129.768 87.3169 129.547 87.3672V87.3672Z" fill="#E6E6E6"/>
<path d="M155.617 66.8858L104.074 78.482C103.853 78.5316 103.644 78.6243 103.459 78.7548C103.274 78.8852 103.116 79.0507 102.995 79.242C102.751 79.6284 102.67 80.096 102.77 80.542C102.871 80.988 103.144 81.3758 103.53 81.6203C103.917 81.8647 104.384 81.9456 104.83 81.8453L156.374 70.2491C156.594 70.1994 156.803 70.1067 156.988 69.9763C157.173 69.8459 157.331 69.6803 157.452 69.489C157.573 69.2977 157.655 69.0845 157.694 68.8614C157.732 68.6384 157.727 68.4099 157.677 68.1891C157.627 67.9682 157.535 67.7594 157.404 67.5743C157.274 67.3893 157.108 67.2318 156.917 67.1108C156.726 66.9898 156.512 66.9076 156.289 66.869C156.066 66.8304 155.838 66.8361 155.617 66.8858V66.8858Z" fill="#E6E6E6"/>
<path d="M154.123 60.2435L102.58 71.8397C102.359 71.889 102.149 71.9813 101.964 72.1115C101.779 72.2417 101.621 72.4071 101.5 72.5983C101.379 72.7895 101.296 73.0028 101.258 73.2258C101.219 73.4489 101.225 73.6774 101.274 73.8983C101.324 74.1192 101.417 74.3281 101.547 74.5131C101.678 74.6981 101.844 74.8555 102.035 74.9764C102.226 75.0973 102.44 75.1792 102.663 75.2175C102.886 75.2558 103.115 75.2497 103.335 75.1996L154.879 63.6034C155.1 63.554 155.308 63.4615 155.493 63.3312C155.678 63.201 155.836 63.0356 155.957 62.8444C156.078 62.6533 156.16 62.4401 156.199 62.2172C156.238 61.9943 156.232 61.7659 156.182 61.5451C156.133 61.3244 156.04 61.1156 155.91 60.9307C155.779 60.7458 155.614 60.5884 155.422 60.4675C155.231 60.3466 155.018 60.2646 154.795 60.2262C154.572 60.1878 154.343 60.1936 154.123 60.2435V60.2435Z" fill="#E6E6E6"/>
<path d="M123.428 60.17L101.085 65.1967C100.864 65.2464 100.655 65.3391 100.47 65.4695C100.285 65.5999 100.128 65.7655 100.007 65.9568C99.8858 66.1481 99.8036 66.3613 99.765 66.5844C99.7264 66.8074 99.7321 67.0359 99.7818 67.2567C99.8315 67.4776 99.9242 67.6865 100.055 67.8715C100.185 68.0565 100.351 68.214 100.542 68.335C100.733 68.456 100.946 68.5382 101.169 68.5768C101.392 68.6154 101.621 68.6097 101.842 68.56L124.185 63.5333C124.406 63.4836 124.615 63.3909 124.8 63.2605C124.985 63.1301 125.142 62.9645 125.263 62.7732C125.384 62.5819 125.466 62.3686 125.505 62.1456C125.544 61.9226 125.538 61.6941 125.488 61.4733C125.439 61.2524 125.346 61.0435 125.215 60.8585C125.085 60.6735 124.919 60.516 124.728 60.395C124.537 60.274 124.324 60.1918 124.101 60.1532C123.878 60.1146 123.649 60.1203 123.428 60.17V60.17Z" fill="#E6E6E6"/>
<path d="M149.498 39.6866L97.9548 51.2828C97.5088 51.3831 97.121 51.6565 96.8766 52.0428C96.6321 52.4292 96.5512 52.8967 96.6515 53.3427C96.7519 53.7888 97.0253 54.1766 97.4116 54.4211C97.7979 54.6655 98.2655 54.7464 98.7115 54.646L150.255 43.0499C150.476 43.0002 150.685 42.9075 150.87 42.7771C151.055 42.6467 151.212 42.4811 151.333 42.2898C151.454 42.0985 151.536 41.8853 151.575 41.6622C151.614 41.4392 151.608 41.2107 151.558 40.9899C151.508 40.769 151.416 40.5602 151.285 40.3751C151.155 40.1901 150.989 40.0326 150.798 39.9116C150.607 39.7906 150.394 39.7084 150.17 39.6698C149.947 39.6312 149.719 39.6369 149.498 39.6866V39.6866Z" fill="#E3E0E0"/>
<path d="M148.004 33.046L96.4611 44.6421C96.2402 44.6918 96.0313 44.7845 95.8463 44.9149C95.6613 45.0453 95.5038 45.2109 95.3828 45.4022C95.1384 45.7885 95.0574 46.2561 95.1578 46.7021C95.2581 47.1481 95.5315 47.536 95.9178 47.7804C96.3042 48.0248 96.7718 48.1058 97.2178 48.0054L148.761 36.4093C148.982 36.3596 149.191 36.2669 149.376 36.1365C149.561 36.0061 149.718 35.8405 149.839 35.6492C149.96 35.4579 150.043 35.2446 150.081 35.0216C150.12 34.7985 150.114 34.5701 150.064 34.3493C150.015 34.1284 149.922 33.9195 149.792 33.7345C149.661 33.5495 149.496 33.392 149.304 33.2709C149.113 33.1499 148.9 33.0678 148.677 33.0292C148.454 32.9905 148.225 32.9963 148.004 33.046V33.046Z" fill="#E3E0E0"/>
<path d="M117.309 32.9717L94.9662 37.9985C94.5202 38.0988 94.1323 38.3722 93.8879 38.7585C93.6435 39.1449 93.5625 39.6125 93.6629 40.0585C93.7632 40.5045 94.0367 40.8923 94.423 41.1368C94.8093 41.3812 95.2769 41.4621 95.7229 41.3618L118.066 36.335C118.287 36.2853 118.496 36.1926 118.681 36.0622C118.866 35.9318 119.023 35.7662 119.144 35.5749C119.265 35.3836 119.348 35.1704 119.386 34.9474C119.425 34.7243 119.419 34.4959 119.369 34.275C119.32 34.0542 119.227 33.8453 119.097 33.6603C118.966 33.4753 118.801 33.3177 118.609 33.1967C118.418 33.0757 118.205 32.9936 117.982 32.9549C117.759 32.9163 117.53 32.922 117.309 32.9717Z" fill="#E3E0E0"/>
<path d="M3.42465 106.139C2.93625 106.139 2.46802 106.333 2.12267 106.679C1.77732 107.024 1.58307 107.492 1.58252 107.981V298.46C1.58305 298.949 1.77731 299.417 2.12265 299.762C2.46799 300.108 2.93622 300.302 3.42465 300.303H242.248C242.737 300.302 243.205 300.108 243.55 299.762C243.895 299.417 244.089 298.949 244.09 298.46V138.557C244.089 138.068 243.895 137.6 243.55 137.255C243.205 136.909 242.737 136.715 242.248 136.714H105.179C103.788 136.716 102.446 136.197 101.417 135.261L70.6016 107.262C69.8067 106.538 68.7703 106.138 67.6955 106.139H3.42465Z" fill="white"/>
<path d="M288.439 56.3183L160.562 1.34197C157.133 -0.127411 153.262 -0.176766 149.796 1.20472C146.331 2.58621 143.556 5.28572 142.078 8.71108L75.0718 164.571L225.32 229.165C226.552 229.699 227.912 229.867 229.237 229.649L295.808 74.8019C297.277 71.3731 297.327 67.5015 295.945 64.0364C294.564 60.5713 291.864 57.7956 288.439 56.3183Z" fill="#E3E0E0"/>
<path d="M235.124 45.8149L165.044 15.6865C161.922 14.3479 158.397 14.3022 155.241 15.5594C152.086 16.8165 149.557 19.2739 148.211 22.3926L85.2123 168.93L218.654 226.299L264.533 119.582C270.398 105.898 270.595 90.4466 265.081 76.6175C259.568 62.7883 248.794 51.7107 235.124 45.8149V45.8149Z" fill="white"/>
<path d="M201.516 203.511L113.541 165.689C113.165 165.527 112.76 165.44 112.349 165.434C111.939 165.428 111.532 165.503 111.151 165.655C110.769 165.806 110.422 166.032 110.128 166.318C109.834 166.604 109.599 166.945 109.437 167.322C109.275 167.699 109.189 168.104 109.183 168.514C109.178 168.925 109.254 169.332 109.406 169.713C109.558 170.094 109.784 170.441 110.071 170.735C110.357 171.028 110.699 171.263 111.076 171.424L199.05 209.246C199.427 209.408 199.832 209.495 200.242 209.501C200.652 209.507 201.06 209.432 201.441 209.28C201.822 209.129 202.17 208.903 202.464 208.617C202.758 208.331 202.993 207.99 203.155 207.613C203.317 207.236 203.403 206.831 203.408 206.421C203.414 206.01 203.338 205.603 203.186 205.222C203.034 204.841 202.808 204.494 202.521 204.2C202.235 203.907 201.893 203.672 201.516 203.511V203.511Z" fill="#E6E6E6"/>
<path d="M206.391 192.171L118.417 154.349C117.656 154.022 116.796 154.011 116.026 154.318C115.257 154.625 114.641 155.225 114.314 155.986C113.987 156.747 113.975 157.607 114.282 158.376C114.588 159.146 115.188 159.762 115.949 160.09L203.923 197.911C204.3 198.073 204.705 198.16 205.115 198.165C205.526 198.17 205.933 198.095 206.314 197.943C206.695 197.791 207.043 197.566 207.337 197.279C207.631 196.993 207.865 196.652 208.027 196.275C208.189 195.898 208.276 195.493 208.281 195.083C208.287 194.672 208.211 194.265 208.059 193.884C207.907 193.503 207.682 193.155 207.396 192.861C207.109 192.568 206.768 192.333 206.391 192.171H206.391Z" fill="#E6E6E6"/>
<path d="M161.425 159.41L123.29 143.015C122.913 142.852 122.508 142.766 122.098 142.76C121.688 142.754 121.281 142.829 120.9 142.981C120.519 143.133 120.172 143.358 119.878 143.644C119.584 143.93 119.349 144.271 119.187 144.648C119.025 145.025 118.939 145.43 118.934 145.84C118.928 146.25 119.004 146.657 119.156 147.038C119.308 147.419 119.534 147.766 119.82 148.06C120.106 148.353 120.448 148.588 120.824 148.749L158.96 165.144C159.337 165.307 159.741 165.393 160.151 165.399C160.562 165.405 160.969 165.329 161.35 165.178C161.731 165.026 162.078 164.801 162.372 164.515C162.666 164.229 162.9 163.887 163.062 163.511C163.224 163.134 163.311 162.729 163.316 162.319C163.321 161.909 163.246 161.502 163.094 161.121C162.942 160.74 162.716 160.393 162.43 160.099C162.144 159.806 161.802 159.571 161.425 159.41V159.41Z" fill="#E6E6E6"/>
<path d="M221.473 157.09L133.499 119.268C132.738 118.942 131.878 118.931 131.109 119.238C130.34 119.545 129.725 120.145 129.398 120.906C129.071 121.667 129.059 122.526 129.365 123.295C129.672 124.065 130.271 124.681 131.031 125.009L219.005 162.83C219.382 162.993 219.788 163.08 220.198 163.086C220.609 163.092 221.017 163.017 221.398 162.865C221.78 162.713 222.128 162.487 222.422 162.201C222.716 161.915 222.951 161.573 223.113 161.196C223.276 160.819 223.362 160.413 223.367 160.002C223.373 159.592 223.297 159.184 223.145 158.803C222.992 158.421 222.766 158.074 222.479 157.78C222.193 157.486 221.851 157.251 221.473 157.09V157.09Z" fill="#E6E6E6"/>
<path d="M226.346 145.756L138.372 107.934C137.995 107.772 137.59 107.685 137.18 107.679C136.769 107.673 136.362 107.748 135.981 107.9C135.6 108.051 135.252 108.277 134.958 108.563C134.664 108.849 134.429 109.19 134.267 109.567C134.105 109.944 134.019 110.349 134.013 110.759C134.008 111.17 134.084 111.577 134.236 111.958C134.388 112.339 134.614 112.686 134.901 112.98C135.187 113.273 135.529 113.508 135.906 113.669L223.88 151.491C224.257 151.653 224.662 151.74 225.072 151.746C225.483 151.752 225.89 151.677 226.271 151.525C226.653 151.374 227 151.148 227.294 150.862C227.588 150.576 227.823 150.235 227.985 149.858C228.147 149.481 228.233 149.076 228.239 148.666C228.244 148.255 228.168 147.848 228.016 147.467C227.864 147.086 227.638 146.739 227.351 146.445C227.065 146.152 226.723 145.917 226.346 145.756V145.756Z" fill="#E6E6E6"/>
<path d="M181.382 112.988L143.247 96.5934C142.486 96.2665 141.626 96.2553 140.857 96.5622C140.087 96.8692 139.471 97.4691 139.144 98.2301C138.817 98.9912 138.805 99.851 139.112 100.621C139.418 101.39 140.018 102.006 140.779 102.334L178.914 118.729C179.291 118.891 179.697 118.978 180.107 118.983C180.517 118.989 180.925 118.913 181.306 118.761C181.687 118.61 182.035 118.384 182.329 118.098C182.623 117.812 182.858 117.47 183.02 117.093C183.182 116.716 183.268 116.311 183.274 115.9C183.279 115.49 183.204 115.083 183.051 114.702C182.899 114.32 182.674 113.973 182.387 113.679C182.101 113.385 181.759 113.15 181.382 112.988V112.988Z" fill="#E6E6E6"/>
<path d="M241.43 110.669L153.456 72.848C152.695 72.5221 151.836 72.5115 151.067 72.8187C150.298 73.1258 149.683 73.7255 149.356 74.486C149.029 75.2465 149.017 76.1057 149.323 76.8749C149.629 77.6441 150.228 78.2604 150.988 78.5884L238.962 116.41C239.339 116.572 239.744 116.659 240.155 116.664C240.565 116.67 240.972 116.594 241.354 116.443C241.735 116.291 242.083 116.065 242.377 115.779C242.671 115.493 242.905 115.151 243.068 114.774C243.23 114.397 243.316 113.992 243.321 113.582C243.327 113.171 243.251 112.764 243.099 112.383C242.947 112.001 242.721 111.654 242.435 111.36C242.149 111.066 241.807 110.831 241.43 110.669V110.669Z" fill="#3787FF"/>
<path d="M246.303 99.334L158.329 61.5124C157.568 61.1862 156.709 61.1755 155.94 61.4826C155.171 61.7896 154.555 62.3894 154.228 63.15C153.901 63.9107 153.889 64.7701 154.195 65.5394C154.502 66.3087 155.101 66.925 155.861 67.2529L243.835 105.074C244.213 105.238 244.618 105.325 245.029 105.332C245.44 105.338 245.848 105.263 246.231 105.112C246.613 104.96 246.961 104.734 247.256 104.448C247.55 104.161 247.786 103.819 247.948 103.442C248.11 103.064 248.197 102.658 248.202 102.247C248.207 101.836 248.131 101.428 247.978 101.047C247.825 100.665 247.599 100.317 247.311 100.023C247.024 99.7295 246.681 99.4952 246.303 99.334V99.334Z" fill="#3787FF"/>
<path d="M201.34 66.5665L163.204 50.1715C162.443 49.8446 161.583 49.8334 160.814 50.1403C160.045 50.4473 159.428 51.0472 159.101 51.8083C158.774 52.5693 158.763 53.4291 159.069 54.1987C159.376 54.9682 159.976 55.5845 160.736 55.912L198.872 72.307C199.249 72.4692 199.654 72.5556 200.064 72.5612C200.475 72.5668 200.882 72.4915 201.263 72.3396C201.645 72.1877 201.992 71.9622 202.286 71.6759C202.58 71.3896 202.815 71.0482 202.977 70.6712C203.139 70.2942 203.226 69.8889 203.231 69.4786C203.236 69.0682 203.161 68.6608 203.009 68.2796C202.857 67.8984 202.631 67.5509 202.345 67.257C202.058 66.9631 201.717 66.7284 201.34 66.5665V66.5665Z" fill="#3787FF"/>
<path d="M106.397 112.929L31.4753 129.785C29.468 130.239 27.7227 131.47 26.6223 133.21C25.522 134.949 25.1564 137.054 25.6058 139.062L46.1502 230.379L134.179 210.574C134.902 210.414 135.564 210.048 136.085 209.522L115.675 118.798C115.22 116.791 113.989 115.046 112.25 113.945C110.51 112.845 108.406 112.479 106.397 112.929Z" fill="#E3E0E0"/>
<path d="M79.1816 125.503L38.1224 134.74C36.2945 135.153 34.7051 136.274 33.7027 137.858C32.7003 139.441 32.3669 141.358 32.7756 143.187L52.0912 229.042L130.274 211.452L116.207 148.928C114.395 140.916 109.479 133.951 102.538 129.559C95.5966 125.168 87.197 123.709 79.1816 125.503V125.503Z" fill="white"/>
<path d="M115.239 206.824L63.6956 218.42C63.4746 218.47 63.2655 218.562 63.0803 218.692C62.895 218.822 62.7373 218.988 62.6161 219.179C62.4948 219.37 62.4125 219.584 62.3738 219.807C62.335 220.03 62.3407 220.258 62.3904 220.479C62.4401 220.7 62.5328 220.909 62.6634 221.094C62.7939 221.279 62.9596 221.436 63.1511 221.557C63.3425 221.678 63.5559 221.76 63.7791 221.798C64.0022 221.837 64.2307 221.83 64.4515 221.78L115.995 210.184C116.216 210.135 116.425 210.043 116.611 209.913C116.796 209.783 116.954 209.617 117.075 209.426C117.197 209.235 117.279 209.021 117.318 208.798C117.357 208.575 117.351 208.346 117.301 208.125C117.252 207.904 117.159 207.695 117.028 207.51C116.898 207.325 116.732 207.168 116.54 207.047C116.348 206.926 116.135 206.844 115.912 206.806C115.688 206.768 115.46 206.774 115.239 206.824V206.824Z" fill="#E6E6E6"/>
<path d="M113.744 200.18L62.2003 211.776C61.7543 211.876 61.3665 212.15 61.122 212.536C60.8776 212.922 60.7967 213.39 60.897 213.836C60.9974 214.282 61.2708 214.67 61.6571 214.914C62.0434 215.159 62.511 215.24 62.957 215.139L114.5 203.543C114.946 203.443 115.334 203.169 115.579 202.783C115.823 202.397 115.904 201.929 115.804 201.483C115.703 201.037 115.43 200.649 115.044 200.405C114.657 200.16 114.19 200.079 113.744 200.18V200.18Z" fill="#E6E6E6"/>
<path d="M83.0497 200.108L60.7065 205.135C60.4859 205.185 60.2772 205.277 60.0924 205.408C59.9076 205.538 59.7502 205.703 59.6293 205.895C59.5084 206.086 59.4263 206.299 59.3878 206.521C59.3492 206.744 59.3549 206.973 59.4045 207.193C59.4542 207.414 59.5468 207.622 59.6771 207.807C59.8073 207.992 59.9727 208.149 60.1638 208.27C60.3549 208.391 60.568 208.473 60.7908 208.512C61.0136 208.55 61.2418 208.545 61.4624 208.495L83.8056 203.468C84.0268 203.419 84.236 203.327 84.4214 203.197C84.6069 203.067 84.7648 202.901 84.8862 202.71C85.0075 202.519 85.09 202.305 85.1288 202.082C85.1676 201.859 85.1619 201.63 85.1122 201.409C85.0625 201.188 84.9697 200.979 84.839 200.794C84.7084 200.609 84.5425 200.452 84.3509 200.331C84.1593 200.21 83.9458 200.128 83.7225 200.09C83.4992 200.052 83.2706 200.058 83.0497 200.108V200.108Z" fill="#E6E6E6"/>
<path d="M109.12 179.625L57.5765 191.221C57.3557 191.271 57.1468 191.364 56.9618 191.494C56.7768 191.624 56.6193 191.79 56.4982 191.981C56.2538 192.368 56.1729 192.835 56.2732 193.281C56.3736 193.727 56.647 194.115 57.0333 194.36C57.4196 194.604 57.8872 194.685 58.3332 194.585L109.877 182.988C110.323 182.888 110.71 182.615 110.955 182.228C111.199 181.842 111.28 181.374 111.18 180.928C111.08 180.482 110.806 180.094 110.42 179.85C110.033 179.606 109.566 179.525 109.12 179.625V179.625Z" fill="#E6E6E6"/>
<path d="M107.626 172.985L56.0823 184.581C55.8613 184.63 55.6522 184.723 55.467 184.853C55.2818 184.983 55.124 185.148 55.0028 185.34C54.8815 185.531 54.7992 185.744 54.7605 185.967C54.7218 186.19 54.7274 186.419 54.7771 186.64C54.8268 186.86 54.9196 187.069 55.0501 187.254C55.1806 187.439 55.3464 187.597 55.5378 187.718C55.7292 187.838 55.9426 187.92 56.1658 187.959C56.3889 187.997 56.6174 187.991 56.8382 187.941L108.382 176.345C108.602 176.295 108.811 176.203 108.996 176.072C109.181 175.942 109.339 175.777 109.46 175.586C109.581 175.394 109.663 175.181 109.702 174.958C109.74 174.735 109.735 174.507 109.685 174.286C109.635 174.066 109.543 173.857 109.412 173.672C109.282 173.487 109.116 173.33 108.925 173.209C108.734 173.088 108.521 173.006 108.298 172.967C108.075 172.929 107.846 172.935 107.626 172.985V172.985Z" fill="#E6E6E6"/>
<path d="M76.9305 172.911L54.5873 177.938C54.1413 178.038 53.7534 178.312 53.509 178.698C53.2646 179.084 53.1836 179.552 53.284 179.998C53.3843 180.444 53.6577 180.832 54.0441 181.076C54.4304 181.321 54.898 181.402 55.344 181.301L77.6872 176.274C78.1332 176.174 78.5211 175.901 78.7655 175.514C79.0099 175.128 79.0908 174.66 78.9905 174.214C78.8901 173.768 78.6167 173.381 78.2304 173.136C77.8441 172.892 77.3765 172.811 76.9305 172.911Z" fill="#E6E6E6"/>
<path d="M103.001 152.428L51.4576 164.024C51.2368 164.074 51.0279 164.166 50.8429 164.297C50.6579 164.427 50.5004 164.593 50.3794 164.784C50.1349 165.17 50.054 165.638 50.1543 166.084C50.2547 166.53 50.5281 166.918 50.9144 167.162C51.3007 167.407 51.7683 167.488 52.2143 167.387L103.758 155.791C103.978 155.741 104.187 155.649 104.372 155.518C104.557 155.388 104.715 155.222 104.836 155.031C104.957 154.84 105.039 154.626 105.078 154.403C105.116 154.18 105.111 153.952 105.061 153.731C105.011 153.51 104.919 153.301 104.788 153.116C104.658 152.931 104.492 152.774 104.301 152.653C104.11 152.532 103.896 152.45 103.673 152.411C103.45 152.372 103.222 152.378 103.001 152.428H103.001Z" fill="#E3E0E0"/>
<path d="M101.507 145.787L49.9633 157.383C49.7424 157.433 49.5335 157.526 49.3485 157.656C49.1635 157.787 49.006 157.952 48.885 158.143C48.6406 158.53 48.5596 158.997 48.66 159.443C48.7603 159.889 49.0337 160.277 49.42 160.522C49.8064 160.766 50.274 160.847 50.72 160.747L102.263 149.15C102.709 149.05 103.097 148.777 103.342 148.39C103.586 148.004 103.667 147.536 103.567 147.09C103.466 146.644 103.193 146.257 102.806 146.012C102.42 145.768 101.953 145.687 101.507 145.787H101.507Z" fill="#E3E0E0"/>
<path d="M70.8116 145.712L48.4684 150.739C48.0224 150.839 47.6345 151.112 47.3901 151.499C47.1457 151.885 47.0647 152.353 47.1651 152.799C47.2654 153.245 47.5389 153.633 47.9252 153.877C48.3115 154.121 48.7791 154.202 49.2251 154.102L71.5683 149.075C71.7891 149.026 71.998 148.933 72.183 148.802C72.368 148.672 72.5256 148.506 72.6466 148.315C72.7676 148.124 72.8498 147.911 72.8884 147.688C72.927 147.465 72.9213 147.236 72.8716 147.015C72.8219 146.794 72.7292 146.586 72.5988 146.401C72.4684 146.216 72.3028 146.058 72.1115 145.937C71.9202 145.816 71.707 145.734 71.4839 145.695C71.2609 145.657 71.0324 145.662 70.8116 145.712Z" fill="#E3E0E0"/>
<path d="M1.84223 156.169C1.60035 156.169 1.36082 156.217 1.13734 156.309C0.913851 156.402 0.710771 156.537 0.539705 156.708C0.368639 156.879 0.232928 157.082 0.140325 157.306C0.0477226 157.529 4.09827e-05 157.769 0 158.01C0 158.08 0.0567016 299.941 0.0567016 299.941C0.107147 300.391 0.321752 300.807 0.659484 301.109C0.997216 301.41 1.43436 301.577 1.8873 301.577H258.435C258.888 301.577 259.325 301.411 259.663 301.109C260.001 300.807 260.215 300.391 260.266 299.941L276.234 158.217C276.263 157.96 276.238 157.699 276.159 157.452C276.08 157.205 275.951 156.977 275.778 156.784C275.606 156.589 275.394 156.434 275.158 156.328C274.921 156.222 274.664 156.168 274.404 156.169L1.84223 156.169Z" fill="white"/>
<path d="M19.9458 164.023C17.343 164.03 14.8477 165.062 12.9993 166.894C11.1508 168.726 10.0976 171.213 10.0674 173.815L10.3877 283.758C10.3763 285.063 10.6234 286.357 11.1148 287.565C11.6061 288.774 12.3319 289.873 13.2504 290.799C14.1689 291.726 15.2618 292.461 16.466 292.963C17.6702 293.465 18.9618 293.723 20.2664 293.723H183.121C201.799 293.736 219.826 286.861 233.753 274.415C247.68 261.969 256.53 244.825 258.609 226.263L264.384 175.008C264.54 173.626 264.402 172.227 263.98 170.902C263.558 169.577 262.86 168.356 261.934 167.319C261.007 166.282 259.872 165.452 258.603 164.884C257.333 164.316 255.958 164.023 254.567 164.023H19.9458ZM269.512 164.023L269.482 163.386H269.512V164.023Z" fill="#3787FF"/>
<path d="M91.0828 246.392H27.9948C27.3429 246.392 26.7177 246.133 26.2568 245.672C25.7958 245.211 25.5369 244.586 25.5369 243.934C25.5369 243.282 25.7958 242.657 26.2568 242.196C26.7177 241.735 27.3429 241.476 27.9948 241.476H91.0828C94.2526 241.432 94.2843 246.436 91.0828 246.392Z" fill="white"/>
<path d="M176.069 259.249H27.9948C27.3429 259.249 26.7177 258.99 26.2568 258.529C25.7958 258.068 25.5369 257.443 25.5369 256.791C25.5369 256.139 25.7958 255.514 26.2568 255.053C26.7177 254.592 27.3429 254.333 27.9948 254.333H176.069C179.239 254.289 179.271 259.294 176.069 259.249Z" fill="white"/>
</svg>
